<svg class="diagram-root" style="background: #f5f6f6" xmlns="http://www.w3.org/2000/svg">
    <style>.diagram-root { font-family: "Helvetica Neue", sans-serif; font-size: 12px; } .t { overflow: visible; } .t-bg
        { y: 40; fill: #fff; } .th { fill: #005aa0; } .tht { fill: #fff; font-size: 14px; } .tf { fill: #323c46;
        overflow: visible; } .tf.pk { fill: #005aa0; font-weight: bold; } .tf.fk { font-weight: bold; } .ty { fill:
        #adb1b5; font-weight: normal; text-anchor: end; } .r { fill: transparent; stroke: #c3c3c3; stroke-width: 1; } .l
        { stroke: 1; } .i { fill: #c2c7ce; stroke: #c2c7ce; } .i.ix { fill: #afb3b6; stroke: #000; } .fa { fill:
        transparent; overflow: visible; } .fa .bg.hover { fill: #f7f7f7; } .c { cy: 12; r: 4; stroke: #d2d2dc; fill:
        #d2d2dc; } .hr { fill: transparent; stroke: #323c46; stroke-opacity: 0.035; stroke-width: 13; } .dc { stroke:
        #fa5a3c; fill: #fa5a3c; } .x { stroke: white; stroke-width: 1; } .hl .th { fill: #1b9bff; } .hl .tht { } .fhl
        .bg { fill: #e7f4ff; } .fhls .bg { } .r.hl { stroke: #1b9bff; } .dim { opacity: 0.25; }
    </style>
    <g class="drawing-wrapper" transform="translate(-35.66666666666668, -7.77777777777785) scale(1,1)">
        <g class="rs">
            <path d="M 250.83 224.4444444444444 m -1, 0 a 1,1 0 1,0 2,0 a 1,1 0 1,0 -2,0 M 250.83 224.4444444444444 m -0.5, 0 a 0.5,0.5 0 1,0 1,0 a 0.5,0.5 0 1,0 -1,0  M250.83 224.4444444444444 L250.83 224.4444444444444 262.83000000000004 224.4444444444444 M 250.83 230.4444444444444 m -1, 0 a 1,1 0 1,0 2,0 a 1,1 0 1,0 -2,0 M 250.83 230.4444444444444 m -0.5, 0 a 0.5,0.5 0 1,0 1,0 a 0.5,0.5 0 1,0 -1,0  M250.83 230.4444444444444 L250.83 230.4444444444444 257.83000000000004 224.4444444444444 250.83 218.4444444444444 M 250.83 218.4444444444444 m -1, 0 a 1,1 0 1,0 2,0 a 1,1 0 1,0 -2,0 M 250.83 218.4444444444444 m -0.5, 0 a 0.5,0.5 0 1,0 1,0 a 0.5,0.5 0 1,0 -1,0  M262.83000000000004 224.4444444444444 C 296.26259608043347 224.4444444444444, 295.6565960804335 319.8888888888911, 263.84000000000003 319.8888888888911 M 251.84 319.8888888888911 m -1, 0 a 1,1 0 1,0 2,0 a 1,1 0 1,0 -2,0 M 251.84 319.8888888888911 m -0.5, 0 a 0.5,0.5 0 1,0 1,0 a 0.5,0.5 0 1,0 -1,0  M251.84 319.8888888888911 L251.84 319.8888888888911 263.84000000000003 319.8888888888911 M257.84000000000003 325.8888888888911 L257.84000000000003 325.8888888888911 257.84000000000003 313.8888888888911"
                  id="h3183171285" class="r"></path>
            <path d="M 384.2222222222223 98.33333333333334 m -1, 0 a 1,1 0 1,0 2,0 a 1,1 0 1,0 -2,0 M 384.2222222222223 98.33333333333334 m -0.5, 0 a 0.5,0.5 0 1,0 1,0 a 0.5,0.5 0 1,0 -1,0  M384.2222222222223 98.33333333333334 L384.2222222222223 98.33333333333334 372.2222222222223 98.33333333333334 M 384.2222222222223 104.33333333333334 m -1, 0 a 1,1 0 1,0 2,0 a 1,1 0 1,0 -2,0 M 384.2222222222223 104.33333333333334 m -0.5, 0 a 0.5,0.5 0 1,0 1,0 a 0.5,0.5 0 1,0 -1,0  M384.2222222222223 104.33333333333334 L384.2222222222223 104.33333333333334 377.2222222222223 98.33333333333334 384.2222222222223 92.33333333333334 M 384.2222222222223 92.33333333333334 m -1, 0 a 1,1 0 1,0 2,0 a 1,1 0 1,0 -2,0 M 384.2222222222223 92.33333333333334 m -0.5, 0 a 0.5,0.5 0 1,0 1,0 a 0.5,0.5 0 1,0 -1,0  M372.2222222222223 98.33333333333334 Q 344.88 98.33333333333334, 317.53 98.89 T 262.83000000000004 99.44444444444441 M 250.83 99.44444444444441 m -1, 0 a 1,1 0 1,0 2,0 a 1,1 0 1,0 -2,0 M 250.83 99.44444444444441 m -0.5, 0 a 0.5,0.5 0 1,0 1,0 a 0.5,0.5 0 1,0 -1,0  M250.83 99.44444444444441 L250.83 99.44444444444441 262.83000000000004 99.44444444444441 M256.83000000000004 105.44444444444441 L256.83000000000004 105.44444444444441 256.83000000000004 93.44444444444441"
                  id="h227901147" class="r"></path>
            <path d="M 550.26 123.33333333333334 m -1, 0 a 1,1 0 1,0 2,0 a 1,1 0 1,0 -2,0 M 550.26 123.33333333333334 m -0.5, 0 a 0.5,0.5 0 1,0 1,0 a 0.5,0.5 0 1,0 -1,0  M550.26 123.33333333333334 L550.26 123.33333333333334 562.26 123.33333333333334 M 550.26 129.33333333333334 m -1, 0 a 1,1 0 1,0 2,0 a 1,1 0 1,0 -2,0 M 550.26 129.33333333333334 m -0.5, 0 a 0.5,0.5 0 1,0 1,0 a 0.5,0.5 0 1,0 -1,0  M550.26 129.33333333333334 L550.26 129.33333333333334 557.26 123.33333333333334 550.26 117.33333333333334 M 550.26 117.33333333333334 m -1, 0 a 1,1 0 1,0 2,0 a 1,1 0 1,0 -2,0 M 550.26 117.33333333333334 m -0.5, 0 a 0.5,0.5 0 1,0 1,0 a 0.5,0.5 0 1,0 -1,0  M562.26 123.33333333333334 Q 601.31 123.33333333333334, 640.35 109.06 T 718.4444444444446 94.77777777777786 M 730.4444444444446 94.77777777777786 m -1, 0 a 1,1 0 1,0 2,0 a 1,1 0 1,0 -2,0 M 730.4444444444446 94.77777777777786 m -0.5, 0 a 0.5,0.5 0 1,0 1,0 a 0.5,0.5 0 1,0 -1,0  M730.4444444444446 94.77777777777786 L730.4444444444446 94.77777777777786 718.4444444444446 94.77777777777786 M724.4444444444446 100.77777777777786 L724.4444444444446 100.77777777777786 724.4444444444446 88.77777777777786"
                  id="h3310385838" class="r"></path>
            <path d="M 598.41 327 m -1, 0 a 1,1 0 1,0 2,0 a 1,1 0 1,0 -2,0 M 598.41 327 m -0.5, 0 a 0.5,0.5 0 1,0 1,0 a 0.5,0.5 0 1,0 -1,0  M598.41 327 L598.41 327 610.41 327 M 598.41 333 m -1, 0 a 1,1 0 1,0 2,0 a 1,1 0 1,0 -2,0 M 598.41 333 m -0.5, 0 a 0.5,0.5 0 1,0 1,0 a 0.5,0.5 0 1,0 -1,0  M598.41 333 L598.41 333 605.41 327 598.41 321 M 598.41 321 m -1, 0 a 1,1 0 1,0 2,0 a 1,1 0 1,0 -2,0 M 598.41 321 m -0.5, 0 a 0.5,0.5 0 1,0 1,0 a 0.5,0.5 0 1,0 -1,0  M610.41 327 Q 644.42 327, 678.43 295.44 T 746.4444444444448 263.88888888888914 M 758.4444444444448 263.88888888888914 m -1, 0 a 1,1 0 1,0 2,0 a 1,1 0 1,0 -2,0 M 758.4444444444448 263.88888888888914 m -0.5, 0 a 0.5,0.5 0 1,0 1,0 a 0.5,0.5 0 1,0 -1,0  M758.4444444444448 263.88888888888914 L758.4444444444448 263.88888888888914 746.4444444444448 263.88888888888914 M752.4444444444448 269.88888888888914 L752.4444444444448 269.88888888888914 752.4444444444448 257.88888888888914"
                  id="h3384221049" class="r"></path>
            <path d="M 598.41 352 m -1, 0 a 1,1 0 1,0 2,0 a 1,1 0 1,0 -2,0 M 598.41 352 m -0.5, 0 a 0.5,0.5 0 1,0 1,0 a 0.5,0.5 0 1,0 -1,0  M598.41 352 L598.41 352 610.41 352 M 598.41 358 m -1, 0 a 1,1 0 1,0 2,0 a 1,1 0 1,0 -2,0 M 598.41 358 m -0.5, 0 a 0.5,0.5 0 1,0 1,0 a 0.5,0.5 0 1,0 -1,0  M598.41 358 L598.41 358 605.41 352 598.41 346 M 598.41 346 m -1, 0 a 1,1 0 1,0 2,0 a 1,1 0 1,0 -2,0 M 598.41 346 m -0.5, 0 a 0.5,0.5 0 1,0 1,0 a 0.5,0.5 0 1,0 -1,0  M610.41 352 Q 644.42 352, 678.43 307.94 T 746.4444444444448 263.88888888888914 M 758.4444444444448 263.88888888888914 m -1, 0 a 1,1 0 1,0 2,0 a 1,1 0 1,0 -2,0 M 758.4444444444448 263.88888888888914 m -0.5, 0 a 0.5,0.5 0 1,0 1,0 a 0.5,0.5 0 1,0 -1,0  M758.4444444444448 263.88888888888914 L758.4444444444448 263.88888888888914 746.4444444444448 263.88888888888914 M752.4444444444448 269.88888888888914 L752.4444444444448 269.88888888888914 752.4444444444448 257.88888888888914"
                  id="h1337946300" class="r"></path>
            <path d="M 385.2222222222224 206.88888888888886 m -1, 0 a 1,1 0 1,0 2,0 a 1,1 0 1,0 -2,0 M 385.2222222222224 206.88888888888886 m -0.5, 0 a 0.5,0.5 0 1,0 1,0 a 0.5,0.5 0 1,0 -1,0  M385.2222222222224 206.88888888888886 L385.2222222222224 206.88888888888886 373.2222222222224 206.88888888888886 M 385.2222222222224 212.88888888888886 m -1, 0 a 1,1 0 1,0 2,0 a 1,1 0 1,0 -2,0 M 385.2222222222224 212.88888888888886 m -0.5, 0 a 0.5,0.5 0 1,0 1,0 a 0.5,0.5 0 1,0 -1,0  M385.2222222222224 212.88888888888886 L385.2222222222224 212.88888888888886 378.2222222222224 206.88888888888886 385.2222222222224 200.88888888888886 M 385.2222222222224 200.88888888888886 m -1, 0 a 1,1 0 1,0 2,0 a 1,1 0 1,0 -2,0 M 385.2222222222224 200.88888888888886 m -0.5, 0 a 0.5,0.5 0 1,0 1,0 a 0.5,0.5 0 1,0 -1,0  M373.2222222222224 206.88888888888886 Q 345.63 206.88888888888886, 318.03 153.17 T 262.83000000000004 99.44444444444441 M 250.83 99.44444444444441 m -1, 0 a 1,1 0 1,0 2,0 a 1,1 0 1,0 -2,0 M 250.83 99.44444444444441 m -0.5, 0 a 0.5,0.5 0 1,0 1,0 a 0.5,0.5 0 1,0 -1,0  M250.83 99.44444444444441 L250.83 99.44444444444441 262.83000000000004 99.44444444444441 M256.83000000000004 105.44444444444441 L256.83000000000004 105.44444444444441 256.83000000000004 93.44444444444441"
                  id="h2246365963" class="r"></path>
            <path d="M 557.26 231.88888888888886 m -1, 0 a 1,1 0 1,0 2,0 a 1,1 0 1,0 -2,0 M 557.26 231.88888888888886 m -0.5, 0 a 0.5,0.5 0 1,0 1,0 a 0.5,0.5 0 1,0 -1,0  M557.26 231.88888888888886 L557.26 231.88888888888886 569.26 231.88888888888886 M 557.26 237.88888888888886 m -1, 0 a 1,1 0 1,0 2,0 a 1,1 0 1,0 -2,0 M 557.26 237.88888888888886 m -0.5, 0 a 0.5,0.5 0 1,0 1,0 a 0.5,0.5 0 1,0 -1,0  M557.26 237.88888888888886 L557.26 237.88888888888886 564.26 231.88888888888886 557.26 225.88888888888886 M 557.26 225.88888888888886 m -1, 0 a 1,1 0 1,0 2,0 a 1,1 0 1,0 -2,0 M 557.26 225.88888888888886 m -0.5, 0 a 0.5,0.5 0 1,0 1,0 a 0.5,0.5 0 1,0 -1,0  M569.26 231.88888888888886 Q 613.56 231.88888888888886, 657.85 247.89 T 746.4444444444448 263.88888888888914 M 758.4444444444448 263.88888888888914 m -1, 0 a 1,1 0 1,0 2,0 a 1,1 0 1,0 -2,0 M 758.4444444444448 263.88888888888914 m -0.5, 0 a 0.5,0.5 0 1,0 1,0 a 0.5,0.5 0 1,0 -1,0  M758.4444444444448 263.88888888888914 L758.4444444444448 263.88888888888914 746.4444444444448 263.88888888888914 M752.4444444444448 269.88888888888914 L752.4444444444448 269.88888888888914 752.4444444444448 257.88888888888914"
                  id="h1163049164" class="r"></path>
        </g>
        <g class="hrs"></g>
        <g class="ts">
            <svg width="166.04" height="100" x="384.2222222222223" y="41.333333333333336" id="h2148038624" class="t">
                <rect height="40" width="166.04" class="th"></rect>
                <text x="13" y="25" class="tht">FILM_GENRES</text>
                <rect height="60" width="166.04" class="t-bg" y="40"></rect>
                <text x="13" y="61" class="tf pk">film_id
                    <tspan x="153.04" class="ty">INTEGER</tspan>
                </text>
                <path d="M7,14A2,2 0 0,1 5,12A2,2 0 0,1 7,10A2,2 0 0,1 9,12A2,2 0 0,1 7,14M12.65,10C11.83,7.67 9.61,6 7, 6A6, 6 0 0, 0 1, 12A6, 6 0 0, 0 7, 18C9.61, 18 11.83, 16.33 12.65, 14H17V18H21V14H23V10H12.65Z"
                      class="i pk" transform="translate(79.70210937499999, 48) scale(0.65)"></path>
                <text x="13" y="86" class="tf pk">genre_id
                    <tspan x="153.04" class="ty">INTEGER</tspan>
                </text>
                <path d="M7,14A2,2 0 0,1 5,12A2,2 0 0,1 7,10A2,2 0 0,1 9,12A2,2 0 0,1 7,14M12.65,10C11.83,7.67 9.61,6 7, 6A6, 6 0 0, 0 1, 12A6, 6 0 0, 0 7, 18C9.61, 18 11.83, 16.33 12.65, 14H17V18H21V14H23V10H12.65Z"
                      class="i pk" transform="translate(79.70210937499999, 73) scale(0.65)"></path>
            </svg>
            <svg width="172.04" height="100" x="385.2222222222224" y="149.88888888888886" id="h2801478394" class="t">
                <rect height="40" width="172.04" class="th"></rect>
                <text x="13" y="25" class="tht">FILMS_LIKE</text>
                <rect height="60" width="172.04" class="t-bg" y="40"></rect>
                <text x="13" y="61" class="tf pk">film_id
                    <tspan x="159.04" class="ty">INTEGER?</tspan>
                </text>
                <path d="M7,14A2,2 0 0,1 5,12A2,2 0 0,1 7,10A2,2 0 0,1 9,12A2,2 0 0,1 7,14M12.65,10C11.83,7.67 9.61,6 7, 6A6, 6 0 0, 0 1, 12A6, 6 0 0, 0 7, 18C9.61, 18 11.83, 16.33 12.65, 14H17V18H21V14H23V10H12.65Z"
                      class="i pk" transform="translate(79.02828124999999, 48) scale(0.65)"></path>
                <text x="13" y="86" class="tf pk">user_id
                    <tspan x="159.04" class="ty">INTEGER?</tspan>
                </text>
                <path d="M7,14A2,2 0 0,1 5,12A2,2 0 0,1 7,10A2,2 0 0,1 9,12A2,2 0 0,1 7,14M12.65,10C11.83,7.67 9.61,6 7, 6A6, 6 0 0, 0 1, 12A6, 6 0 0, 0 7, 18C9.61, 18 11.83, 16.33 12.65, 14H17V18H21V14H23V10H12.65Z"
                      class="i pk" transform="translate(79.02828124999999, 73) scale(0.65)"></path>
            </svg>
            <svg width="193.16" height="200" x="57.66666666666668" y="42.444444444444414" id="h2148993683" class="t">
                <rect height="40" width="193.16" class="th"></rect>
                <text x="13" y="25" class="tht">FILMS</text>
                <rect height="160" width="193.16" class="t-bg" y="40"></rect>
                <text x="13" y="61" class="tf fk">id
                    <tspan x="180.16" class="ty">INTEGER?</tspan>
                </text>
                <text x="13" y="86" class="tf">name
                    <tspan x="180.16" class="ty">VARCHAR(200),</tspan>
                </text>
                <text x="13" y="111" class="tf">description
                    <tspan x="180.16" class="ty">VARCHAR(200),</tspan>
                </text>
                <text x="13" y="136" class="tf">duration
                    <tspan x="180.16" class="ty">INTEGER,</tspan>
                </text>
                <text x="13" y="161" class="tf">releaseDate
                    <tspan x="180.16" class="ty">DATE,</tspan>
                </text>
                <text x="13" y="186" class="tf fk">mpa_rating_id
                    <tspan x="180.16" class="ty">INTEGER</tspan>
                </text>
            </svg>
            <svg width="172.06" height="125" x="79.77777777777743" y="262.8888888888911" id="h844439786" class="t">
                <rect height="40" width="172.06" class="th"></rect>
                <text x="13" y="25" class="tht">MPA_RATING</text>
                <rect height="85" width="172.06" class="t-bg" y="40"></rect>
                <text x="13" y="61" class="tf fk">id
                    <tspan x="159.06" class="ty">INTEGER?</tspan>
                </text>
                <text x="13" y="86" class="tf">name
                    <tspan x="159.06" class="ty">VARCHAR(10),</tspan>
                </text>
                <text x="13" y="111" class="tf">description
                    <tspan x="159.06" class="ty">varchar(100)</tspan>
                </text>
            </svg>
            <svg width="133.8" height="175" x="758.4444444444448" y="206.8888888888891" id="h1765850068" class="t">
                <rect height="40" width="133.8" class="th"></rect>
                <text x="13" y="25" class="tht">USERS</text>
                <rect height="135" width="133.8" class="t-bg" y="40"></rect>
                <text x="13" y="61" class="tf fk">id
                    <tspan x="120.80000000000001" class="ty">INTEGER?</tspan>
                </text>
                <text x="13" y="86" class="tf">login
                    <tspan x="120.80000000000001" class="ty">VARCHAR</tspan>
                </text>
                <text x="13" y="111" class="tf">name
                    <tspan x="120.80000000000001" class="ty">VARCHAR</tspan>
                </text>
                <text x="13" y="136" class="tf">email
                    <tspan x="120.80000000000001" class="ty">VARCHAR</tspan>
                </text>
                <text x="13" y="161" class="tf">birthday
                    <tspan x="120.80000000000001" class="ty">DATE?</tspan>
                </text>
            </svg>
            <svg width="155.14" height="100" x="730.4444444444446" y="37.77777777777785" id="h2260824132" class="t">
                <rect height="40" width="155.14" class="th"></rect>
                <text x="13" y="25" class="tht">GENRES</text>
                <rect height="60" width="155.14" class="t-bg" y="40"></rect>
                <text x="13" y="61" class="tf fk">id
                    <tspan x="142.14" class="ty">INTEGER?</tspan>
                </text>
                <text x="13" y="86" class="tf">name
                    <tspan x="142.14" class="ty">VARCHAR(32)</tspan>
                </text>
            </svg>
            <svg width="218.74" height="100" x="379.6666666666671" y="270" id="h3180451198" class="t">
                <rect height="40" width="218.74" class="th"></rect>
                <text x="13" y="25" class="tht">FRIENDS</text>
                <rect height="60" width="218.74" class="t-bg" y="40"></rect>
                <text x="13" y="61" class="tf pk">user_id_request
                    <tspan x="205.74" class="ty">INTEGER?</tspan>
                </text>
                <path d="M7,14A2,2 0 0,1 5,12A2,2 0 0,1 7,10A2,2 0 0,1 9,12A2,2 0 0,1 7,14M12.65,10C11.83,7.67 9.61,6 7, 6A6, 6 0 0, 0 1, 12A6, 6 0 0, 0 7, 18C9.61, 18 11.83, 16.33 12.65, 14H17V18H21V14H23V10H12.65Z"
                      class="i pk" transform="translate(125.72828125000001, 48) scale(0.65)"></path>
                <text x="13" y="86" class="tf pk">user_id_friend
                    <tspan x="205.74" class="ty">INTEGER?</tspan>
                </text>
                <path d="M7,14A2,2 0 0,1 5,12A2,2 0 0,1 7,10A2,2 0 0,1 9,12A2,2 0 0,1 7,14M12.65,10C11.83,7.67 9.61,6 7, 6A6, 6 0 0, 0 1, 12A6, 6 0 0, 0 7, 18C9.61, 18 11.83, 16.33 12.65, 14H17V18H21V14H23V10H12.65Z"
                      class="i pk" transform="translate(125.72828125000001, 73) scale(0.65)"></path>
            </svg>
        </g>
    </g>
    <text class="qdbd-link" x="10" y="20">www.quickdatabasediagrams.com</text>
</svg>